<?xml version="1.0" encoding="UTF-8"?>
<!-- Generator: visioncortex VTracer 0.6.12 -->
<svg version="1.1" xmlns="http://www.w3.org/2000/svg" width="1024" height="1024">
<path d="M0 0 C337.92 0 675.84 0 1024 0 C1024 337.92 1024 675.84 1024 1024 C686.08 1024 348.16 1024 0 1024 C0 686.08 0 348.16 0 0 Z " fill="#D0C5C2" transform="translate(0,0)"/>
<path d="M0 0 C16.17 0 32.34 0 49 0 C49 23.1 49 46.2 49 70 C42.276 67.759 42.276 67.759 38.871 65.582 C38.146 65.133 37.421 64.684 36.674 64.221 C35.175 63.277 33.68 62.326 32.189 61.369 C31.466 60.924 30.742 60.478 29.996 60.02 C29.348 59.608 28.7 59.197 28.033 58.773 C25.284 57.728 23.789 58.139 21 59 C18.72 60.123 18.72 60.123 16.426 61.504 C15.594 61.997 14.762 62.49 13.904 62.998 C13.049 63.514 12.194 64.031 11.312 64.562 C9.603 65.588 7.89 66.611 6.176 67.629 C5.422 68.083 4.668 68.538 3.892 69.006 C2 70 2 70 0 70 C0 46.9 0 23.8 0 0 Z " fill="#313234" transform="translate(220,754)"/>
<path d="M0 0 C3.367 0.903 6.683 1.931 10 3 C11.252 3.402 12.503 3.804 13.793 4.219 C20.642 6.578 26.576 8.785 30.176 15.496 C31.681 20.07 31.859 24.273 31 29 C28.504 33.889 24.064 36.225 19 38 C15.5 38.25 15.5 38.25 13 38 C12.804 37.515 12.804 37.515 11.812 35.062 C9.549 31.069 6.247 28.61 2.562 26 C2.001 25.59 1.439 25.18 0.861 24.758 C-1.681 23.033 -3.448 21.992 -6.559 22.035 C-9.51 23.201 -11.979 24.685 -14.625 26.438 C-15.566 27.055 -16.507 27.672 -17.477 28.309 C-18.309 28.867 -19.142 29.425 -20 30 C-20.99 30.66 -21.98 31.32 -23 32 C-23 31.01 -23 30.02 -23 29 C-21.364 27.637 -21.364 27.637 -19.098 26.258 C-18.29 25.749 -17.482 25.239 -16.65 24.715 C-14.931 23.659 -13.21 22.607 -11.486 21.559 C-10.677 21.047 -9.869 20.535 -9.035 20.008 C-8.286 19.55 -7.537 19.093 -6.766 18.622 C-4.464 16.507 -4.231 15.078 -4 12 C-4.938 8.688 -4.938 8.688 -6 6 C-5.01 5.381 -4.02 4.763 -3 4.125 C-2.01 3.424 -1.02 2.722 0 2 C0 1.34 0 0.68 0 0 Z " fill="#884036" transform="translate(840,649)"/>
<path d="M0 0 C1.32 0 2.64 0 4 0 C4.989 4.744 5.967 9.491 6.936 14.24 C7.266 15.849 7.598 17.458 7.934 19.066 C8.895 23.674 9.779 28.287 10.595 32.923 C10.962 34.803 11.451 36.657 11.953 38.505 C12.851 42.754 13.263 45.987 10.866 49.809 C6.936 54.831 2.245 59.073 -2.438 63.375 C-3.823 64.699 -5.205 66.025 -6.584 67.355 C-11.671 72.23 -16.834 77.001 -22.153 81.622 C-25.188 84.265 -28.101 86.983 -30.938 89.84 C-31.769 90.675 -32.6 91.509 -33.457 92.369 C-34.296 93.217 -35.135 94.064 -36 94.938 C-36.87 95.812 -37.74 96.687 -38.637 97.588 C-40.76 99.723 -42.881 101.86 -45 104 C-46.32 103.34 -47.64 102.68 -49 102 C-48.659 98.986 -48.35 97.377 -46.258 95.121 C-45.906 94.843 -45.906 94.843 -44.125 93.438 C-41.873 91.638 -40.083 90.112 -38.367 87.785 C-37.916 87.196 -37.465 86.607 -37 86 C-36.34 86 -35.68 86 -35 86 C-35 85.34 -35 84.68 -35 84 C-33.461 82.52 -33.461 82.52 -31.375 80.812 C-28.665 78.516 -26.247 76.25 -24 73.5 C-21.984 71.06 -19.917 68.981 -17.5 66.938 C-13.32 63.385 -9.443 59.561 -5.562 55.688 C-4.935 55.064 -4.307 54.441 -3.66 53.799 C-3.072 53.209 -2.485 52.619 -1.879 52.012 C-1.614 51.746 -1.614 51.746 -0.272 50.401 C1 49 1 49 2 47 C-2.913 47.187 -7.823 47.4 -12.734 47.635 C-14.404 47.711 -16.074 47.781 -17.745 47.844 C-20.149 47.935 -22.55 48.051 -24.953 48.172 C-25.698 48.195 -26.443 48.218 -27.211 48.242 C-30.796 48.445 -32.687 48.743 -35.503 51.052 C-35.75 51.373 -35.75 51.373 -37 53 C-37.66 52.67 -38.32 52.34 -39 52 C-38.34 51.216 -37.68 50.433 -37 49.625 C-35 47 -35 47 -35 45 C-21.47 45 -7.94 45 6 45 C5.399 41.919 4.799 38.838 4.18 35.664 C3.608 32.689 3.04 29.714 2.472 26.738 C2.075 24.666 1.673 22.594 1.267 20.522 C0.686 17.551 0.119 14.577 -0.445 11.602 C-0.631 10.671 -0.816 9.741 -1.007 8.783 C-1.167 7.922 -1.328 7.061 -1.493 6.174 C-1.639 5.415 -1.786 4.655 -1.937 3.873 C-1.958 3.255 -1.979 2.637 -2 2 C-1.34 1.34 -0.68 0.68 0 0 Z " fill="#5B2721" transform="translate(832,401)"/>
<path d="M0 0 C0.66 0.66 1.32 1.32 2 2 C1.006 3.973 1.006 3.973 -1 6 C-3.83 6.376 -6.268 6.496 -9.096 6.438 C-9.92 6.437 -10.745 6.436 -11.595 6.435 C-14.324 6.427 -17.052 6.391 -19.781 6.355 C-21.675 6.345 -23.57 6.337 -25.464 6.331 C-30.454 6.31 -35.444 6.266 -40.434 6.216 C-48.421 6.141 -56.409 6.103 -64.397 6.061 C-67.19 6.043 -69.984 6.017 -72.777 5.989 C-74.486 5.976 -76.195 5.963 -77.904 5.95 C-78.684 5.94 -79.463 5.93 -80.266 5.92 C-83.457 5.9 -85.948 5.983 -89 7 C-89.99 6.67 -90.98 6.34 -92 6 C-93.355 5.911 -94.714 5.876 -96.072 5.876 C-96.489 5.875 -96.489 5.875 -98.599 5.869 C-99.517 5.872 -100.435 5.874 -101.38 5.877 C-101.869 5.876 -101.869 5.876 -104.343 5.873 C-107.651 5.871 -110.958 5.875 -114.266 5.88 C-116.649 5.879 -119.031 5.878 -121.414 5.877 C-126.61 5.875 -131.807 5.877 -137.003 5.881 C-144.73 5.887 -152.457 5.887 -160.184 5.886 C-173.181 5.885 -186.178 5.888 -199.175 5.894 C-212.048 5.9 -224.921 5.904 -237.794 5.905 C-238.593 5.905 -239.393 5.905 -240.217 5.905 C-244.278 5.906 -248.339 5.906 -252.401 5.906 C-281.183 5.908 -309.965 5.915 -338.747 5.925 C-366.713 5.934 -394.678 5.941 -422.644 5.945 C-423.505 5.945 -424.367 5.945 -425.255 5.945 C-433.908 5.947 -442.561 5.948 -451.214 5.949 C-468.842 5.952 -486.471 5.955 -504.099 5.958 C-504.909 5.958 -505.72 5.958 -506.555 5.958 C-560.703 5.967 -614.852 5.983 -669 6 C-669 5.34 -669 4.68 -669 4 C-448.56 3.67 -228.12 3.34 -1 3 C-0.67 2.01 -0.34 1.02 0 0 Z " fill="#A49C94" transform="translate(854,829)"/>
<path d="M0 0 C0.66 0.33 1.32 0.66 2 1 C1.753 1.474 1.753 1.474 0.5 3.875 C-1 7 -1 7 -1 9 C-3.451 10.225 -5.028 10.125 -7.769 10.124 C-8.784 10.126 -9.799 10.129 -10.845 10.131 C-11.408 10.13 -11.408 10.13 -14.256 10.123 C-15.449 10.124 -16.642 10.125 -17.87 10.127 C-21.206 10.129 -24.541 10.126 -27.877 10.122 C-31.496 10.119 -35.115 10.121 -38.734 10.123 C-45.085 10.125 -51.437 10.123 -57.788 10.119 C-67.232 10.113 -76.677 10.113 -86.121 10.114 C-102.005 10.115 -117.89 10.112 -133.775 10.106 C-149.509 10.1 -165.244 10.096 -180.978 10.095 C-181.467 10.095 -181.467 10.095 -183.939 10.095 C-188.902 10.094 -193.865 10.094 -198.827 10.094 C-234.005 10.092 -269.182 10.085 -304.359 10.075 C-338.54 10.066 -372.721 10.059 -406.901 10.055 C-407.428 10.055 -407.428 10.055 -410.092 10.055 C-420.667 10.053 -431.242 10.052 -441.817 10.051 C-463.36 10.048 -484.904 10.045 -506.447 10.042 C-507.438 10.042 -508.428 10.042 -509.449 10.042 C-575.633 10.033 -641.816 10.017 -708 10 C-708 9.67 -708 9.34 -708 9 C-707.393 9 -706.786 9 -706.161 8.999 C-640.123 8.973 -574.085 8.941 -508.047 8.883 C-507.061 8.883 -506.075 8.882 -505.059 8.881 C-483.632 8.862 -462.205 8.843 -440.779 8.822 C-430.272 8.812 -419.764 8.802 -409.257 8.792 C-408.212 8.792 -407.166 8.791 -406.089 8.79 C-372.179 8.758 -338.27 8.74 -304.361 8.728 C-269.523 8.716 -234.686 8.691 -199.848 8.649 C-194.931 8.643 -190.014 8.637 -185.097 8.632 C-184.129 8.631 -183.161 8.629 -182.164 8.628 C-166.566 8.611 -150.969 8.607 -135.371 8.608 C-119.701 8.609 -104.032 8.596 -88.362 8.568 C-79.045 8.551 -69.728 8.546 -60.411 8.557 C-54.193 8.563 -47.975 8.555 -41.757 8.535 C-38.211 8.523 -34.664 8.519 -31.118 8.531 C-27.302 8.545 -23.486 8.528 -19.67 8.508 C-19.117 8.512 -19.117 8.512 -16.315 8.535 C-10.247 8.473 -6.592 8.11 -2 4 C-0.625 1.75 -0.625 1.75 0 0 Z " fill="#45413E" transform="translate(870,846)"/>
<path d="M0 0 C2.125 0.938 2.125 0.938 4 2 C2.581 11.834 0.792 21.567 -1.125 31.312 C-1.405 32.747 -1.685 34.181 -1.965 35.615 C-2.641 39.077 -3.319 42.539 -4 46 C-3.67 45.835 -3.67 45.835 -2 45 C-0.521 44.904 0.963 44.869 2.445 44.867 C3.35 44.864 4.254 44.861 5.186 44.858 C9.18 44.881 13.174 44.931 17.168 44.989 C19.653 44.999 22.112 44.923 24.594 44.805 C31.628 44.621 36.208 45.49 41.369 50.362 C43.719 52.812 45.884 55.344 48 58 C47.01 58 46.02 58 45 58 C43.757 56.529 42.555 55.023 41.375 53.5 C38.299 50.324 36.713 49.108 32.297 48.438 C28.664 48.403 25.047 48.663 21.423 48.902 C17.083 49.077 12.769 48.771 8.438 48.5 C8.018 48.476 8.018 48.476 5.893 48.354 C3.928 48.24 1.964 48.121 0 48 C-0.33 48.66 -0.66 49.32 -1 50 C-1 49.34 -1 48.68 -1 48 C-1.99 48.165 -1.99 48.165 -7 49 C-7.33 49.99 -7.66 50.98 -8 52 C-10.213 49.653 -11.011 48.56 -10.945 45.277 C-10.745 44.246 -10.546 43.215 -10.34 42.152 C-10.125 40.998 -9.91 39.843 -9.689 38.654 C-9.441 37.427 -9.193 36.201 -8.938 34.938 C-8.818 34.313 -8.818 34.313 -8.212 31.153 C-7.492 27.432 -6.747 23.716 -6 20 C-5.611 17.987 -5.223 15.974 -4.836 13.961 C-4.497 12.244 -4.156 10.528 -3.812 8.812 C-3.658 8.024 -3.504 7.236 -3.345 6.424 C-2.964 4.6 -2.492 2.797 -2 1 C-1.34 0.67 -0.68 0.34 0 0 Z " fill="#454547" transform="translate(190,400)"/>
<path d="M0 0 C1.32 0 2.64 0 4 0 C4.986 4.782 5.965 9.565 6.936 14.349 C7.266 15.972 7.599 17.595 7.934 19.217 C12.293 40.349 12.293 40.349 12 46 C10 48 10 48 7.225 48.211 C6.644 48.203 6.644 48.203 3.699 48.16 C3.055 48.155 3.055 48.155 -0.205 48.127 C-1.574 48.106 -2.943 48.085 -4.312 48.062 C-11.956 47.961 -19.593 47.878 -27.23 48.246 C-28.249 48.293 -29.268 48.34 -30.317 48.388 C-33.603 49.137 -34.864 50.456 -37 53 C-37.66 52.67 -38.32 52.34 -39 52 C-38.34 51.216 -37.68 50.433 -37 49.625 C-35 47 -35 47 -35 45 C-21.47 45 -7.94 45 6 45 C5.399 41.919 4.799 38.838 4.18 35.664 C3.608 32.689 3.04 29.714 2.472 26.738 C2.075 24.666 1.673 22.594 1.267 20.522 C0.686 17.551 0.119 14.577 -0.445 11.602 C-0.631 10.671 -0.816 9.741 -1.007 8.783 C-1.167 7.922 -1.328 7.061 -1.493 6.174 C-1.639 5.415 -1.786 4.655 -1.937 3.873 C-1.958 3.255 -1.979 2.637 -2 2 C-1.34 1.34 -0.68 0.68 0 0 Z " fill="#AF5A4D" transform="translate(832,401)"/>
<path d="M0 0 C0.33 0.33 0.33 0.33 2 2 C1.006 3.973 1.006 3.973 -1 6 C-3.83 6.376 -6.268 6.496 -9.096 6.438 C-9.92 6.437 -10.745 6.436 -11.595 6.435 C-14.324 6.427 -17.052 6.391 -19.781 6.355 C-21.675 6.345 -23.57 6.337 -25.464 6.331 C-30.454 6.31 -35.444 6.266 -40.434 6.216 C-48.421 6.141 -56.409 6.103 -64.397 6.061 C-67.19 6.043 -69.984 6.017 -72.777 5.989 C-74.486 5.976 -76.195 5.963 -77.904 5.95 C-78.684 5.94 -79.463 5.93 -80.266 5.92 C-83.457 5.9 -85.948 5.983 -89 7 C-89.99 6.67 -90.98 6.34 -92 6 C-93.536 5.911 -95.075 5.878 -96.613 5.88 C-97.559 5.878 -98.506 5.877 -99.481 5.876 C-99.999 5.877 -99.999 5.877 -102.622 5.886 C-103.715 5.886 -104.808 5.886 -105.933 5.886 C-109.553 5.887 -113.173 5.895 -116.793 5.902 C-119.3 5.904 -121.807 5.906 -124.313 5.907 C-130.242 5.91 -136.17 5.918 -142.099 5.928 C-149.511 5.94 -156.922 5.946 -164.334 5.951 C-177.556 5.962 -190.778 5.979 -204 6 C-204 5.34 -204 4.68 -204 4 C-170.505 3.835 -170.505 3.835 -1 3 C-0.67 2.01 -0.34 1.02 0 0 Z " fill="#8B847D" transform="translate(854,829)"/>
<path d="M0 0 C0 0.99 0 1.98 0 3 C-0.99 3 -1.98 3 -3 3 C-2.01 2.01 -1.02 1.02 0 0 Z M-9 9 C-8.34 9.99 -7.68 10.98 -7 12 C-7.449 12.444 -7.898 12.889 -8.36 13.347 C-13.021 17.964 -17.676 22.588 -22.326 27.216 C-24.063 28.943 -25.803 30.669 -27.544 32.393 C-30.043 34.868 -32.536 37.349 -35.027 39.832 C-35.418 40.218 -35.418 40.218 -37.398 42.171 C-38.119 42.892 -38.839 43.612 -39.582 44.355 C-40.219 44.988 -40.856 45.62 -41.513 46.273 C-43 48 -43 48 -44 51 C-46.215 52.422 -46.215 52.422 -48.938 53.75 C-49.833 54.199 -50.729 54.647 -51.652 55.109 C-52.04 55.256 -52.04 55.256 -54 56 C-54.66 55.67 -55.32 55.34 -56 55 C-51.166 50.14 -46.327 45.284 -41.486 40.431 C-39.842 38.782 -38.199 37.132 -36.557 35.482 C-34.186 33.099 -31.812 30.719 -29.438 28.34 C-29.075 27.975 -29.075 27.975 -27.243 26.129 C-23.192 22.078 -19.048 18.204 -14.698 14.476 C-12.702 12.741 -10.831 10.907 -9 9 Z " fill="#95483C" transform="translate(782,461)"/>
<path d="M0 0 C0.99 0.33 1.98 0.66 3 1 C2.457 1.354 1.915 1.709 1.355 2.074 C-4.41 6.365 -6.311 10.165 -7.481 17.211 C-9.349 30.858 -9.09 44.61 -8.904 58.347 C-8.874 60.729 -8.856 63.11 -8.84 65.492 C-8.833 65.856 -8.833 65.856 -8.799 67.695 C-8.79 69.465 -8.886 71.234 -9 73 C-9.33 73.33 -9.33 73.33 -11 75 C-12.149 66.127 -12.153 57.325 -12.13 48.395 C-12.125 45.808 -12.13 43.221 -12.137 40.635 C-12.136 38.971 -12.135 37.308 -12.133 35.645 C-12.135 34.881 -12.137 34.117 -12.139 33.33 C-12.119 28.787 -11.745 24.483 -11 20 C-10.34 20 -9.68 20 -9 20 C-9.093 19.464 -9.093 19.464 -9.562 16.75 C-10.173 11.514 -10.173 11.514 -9 9 C-6.688 6.5 -6.688 6.5 -4 4 C-3.237 3.237 -2.474 2.474 -1.688 1.688 C-1.131 1.131 -0.574 0.574 0 0 Z " fill="#3C3732" transform="translate(171,731)"/>
<path d="M0 0 C6.38 -0.057 12.756 -0.047 19.136 0.005 C21.633 0.001 24.108 -0.08 26.602 -0.199 C33.632 -0.377 38.211 0.493 43.369 5.362 C45.719 7.812 47.884 10.344 50 13 C49.01 13 48.02 13 47 13 C45.757 11.529 44.555 10.023 43.375 8.5 C40.299 5.324 38.713 4.108 34.297 3.438 C30.664 3.403 27.047 3.663 23.423 3.902 C19.083 4.077 14.769 3.771 10.438 3.5 C9.598 3.452 8.758 3.403 7.893 3.354 C5.928 3.24 3.964 3.121 2 3 C1.67 3.66 1.34 4.32 1 5 C1 4.34 1 3.68 1 3 C0.01 3.33 -0.98 3.66 -2 4 C-1.34 2.68 -0.68 1.36 0 0 Z " fill="#4F4E4E" transform="translate(188,445)"/>
<path d="M0 0 C3.708 -0.029 7.417 -0.047 11.125 -0.062 C12.172 -0.071 13.218 -0.079 14.297 -0.088 C19.309 -0.104 24.077 -0.082 29 1 C29 1.33 29 1.66 29 2 C28.203 2.04 27.406 2.079 26.585 2.12 C22.972 2.311 19.361 2.53 15.75 2.75 C14.496 2.812 13.241 2.874 11.949 2.938 C10.744 3.015 9.539 3.092 8.297 3.172 C7.187 3.235 6.076 3.298 4.933 3.362 C1.474 4.114 0.22 5.308 -2 8 C-2.66 7.67 -3.32 7.34 -4 7 C-3.34 6.216 -2.68 5.433 -2 4.625 C0 2 0 2 0 0 Z " fill="#BC6858" transform="translate(797,446)"/>
<path d="M0 0 C3.542 -0.029 7.083 -0.047 10.625 -0.062 C11.624 -0.071 12.623 -0.079 13.652 -0.088 C18.55 -0.104 23.187 -0.043 28 1 C28 1.33 28 1.66 28 2 C19.42 2.33 10.84 2.66 2 3 C1.67 3.66 1.34 4.32 1 5 C1 4.34 1 3.68 1 3 C0.01 3.33 -0.98 3.66 -2 4 C-1.34 2.68 -0.68 1.36 0 0 Z " fill="#5C5B5C" transform="translate(188,445)"/>
<path d="M0 0 C2.125 0.938 2.125 0.938 4 2 C4 2.99 4 3.98 4 5 C3.34 5 2.68 5 2 5 C1.34 8.63 0.68 12.26 0 16 C-0.99 16 -1.98 16 -3 16 C-3.027 14.25 -3.046 12.5 -3.062 10.75 C-3.074 9.775 -3.086 8.801 -3.098 7.797 C-3.011 5.319 -2.847 3.324 -2 1 C-1.34 0.67 -0.68 0.34 0 0 Z " fill="#4E4E4E" transform="translate(190,400)"/>
</svg>
